<svg xmlns="http://www.w3.org/2000/svg" xmlns:xlink="http://www.w3.org/1999/xlink" width="500" zoomAndPan="magnify" viewBox="0 0 375 374.999991" height="500" preserveAspectRatio="xMidYMid meet" version="1.0"><defs><clipPath id="c82fadb22a"><path d="M 12.214844 12.214844 L 362.785156 12.214844 L 362.785156 362.785156 L 12.214844 362.785156 Z M 12.214844 12.214844 " clip-rule="nonzero"/></clipPath><clipPath id="d1e5ab63d0"><path d="M 187.5 12.214844 C 90.691406 12.214844 12.214844 90.691406 12.214844 187.5 C 12.214844 284.308594 90.691406 362.785156 187.5 362.785156 C 284.308594 362.785156 362.785156 284.308594 362.785156 187.5 C 362.785156 90.691406 284.308594 12.214844 187.5 12.214844 Z M 187.5 12.214844 " clip-rule="nonzero"/></clipPath><clipPath id="e4855cc28d"><path d="M 0.214844 0.214844 L 350.785156 0.214844 L 350.785156 350.785156 L 0.214844 350.785156 Z M 0.214844 0.214844 " clip-rule="nonzero"/></clipPath><clipPath id="9075988e64"><path d="M 175.5 0.214844 C 78.691406 0.214844 0.214844 78.691406 0.214844 175.5 C 0.214844 272.308594 78.691406 350.785156 175.5 350.785156 C 272.308594 350.785156 350.785156 272.308594 350.785156 175.5 C 350.785156 78.691406 272.308594 0.214844 175.5 0.214844 Z M 175.5 0.214844 " clip-rule="nonzero"/></clipPath><clipPath id="7df84b167b"><rect x="0" width="351" y="0" height="351"/></clipPath><clipPath id="4054860065"><path d="M 12.214844 12.214844 L 362.464844 12.214844 L 362.464844 362.464844 L 12.214844 362.464844 Z M 12.214844 12.214844 " clip-rule="nonzero"/></clipPath><clipPath id="11b09e980c"><path d="M 187.496094 12.214844 C 90.691406 12.214844 12.214844 90.691406 12.214844 187.496094 C 12.214844 284.304688 90.691406 362.78125 187.496094 362.78125 C 284.304688 362.78125 362.78125 284.304688 362.78125 187.496094 C 362.78125 90.691406 284.304688 12.214844 187.496094 12.214844 Z M 187.496094 12.214844 " clip-rule="nonzero"/></clipPath><clipPath id="0cb4f870c7"><path d="M 72.84375 55.773438 L 302.34375 55.773438 L 302.34375 253.644531 L 72.84375 253.644531 Z M 72.84375 55.773438 " clip-rule="nonzero"/></clipPath><clipPath id="22800172ee"><path d="M 72.84375 121.027344 L 302.34375 121.027344 L 302.34375 318.898438 L 72.84375 318.898438 Z M 72.84375 121.027344 " clip-rule="nonzero"/></clipPath></defs><g clip-path="url(#c82fadb22a)"><g clip-path="url(#d1e5ab63d0)"><g transform="matrix(1, 0, 0, 1, 12, 12)"><g clip-path="url(#7df84b167b)"><g clip-path="url(#e4855cc28d)"><g clip-path="url(#9075988e64)"><path fill="#ffffff" d="M 0.214844 0.214844 L 350.785156 0.214844 L 350.785156 350.785156 L 0.214844 350.785156 Z M 0.214844 0.214844 " fill-opacity="1" fill-rule="nonzero"/></g></g></g></g></g></g><g clip-path="url(#4054860065)"><g clip-path="url(#11b09e980c)"><path stroke-linecap="butt" transform="matrix(0.75, 0, 0, 0.75, 12.213706, 12.213702)" fill="none" stroke-linejoin="miter" d="M 233.70988 0.00152276 C 104.636947 0.00152276 0.00151676 104.636953 0.00151676 233.709886 C 0.00151676 362.788028 104.636947 467.423458 233.70988 467.423458 C 362.788022 467.423458 467.423452 362.788028 467.423452 233.709886 C 467.423452 104.636953 362.788022 0.00152276 233.70988 0.00152276 Z M 233.70988 0.00152276 " stroke="#000000" stroke-width="22" stroke-opacity="1" stroke-miterlimit="4"/></g></g><g clip-path="url(#0cb4f870c7)"><path fill="#266ec4" d="M 105.835938 234.601562 L 269.65625 234.601562 L 188.394531 93.484375 Z M 302.367188 253.558594 L 72.84375 253.558594 L 188.546875 55.773438 L 302.367188 253.558594 " fill-opacity="1" fill-rule="nonzero"/></g><g clip-path="url(#22800172ee)"><path fill="#266ec4" d="M 105.835938 140.023438 L 188.394531 281.1875 L 269.65625 140.023438 Z M 188.546875 318.898438 L 72.84375 121.117188 L 302.367188 121.117188 L 188.546875 318.898438 " fill-opacity="1" fill-rule="nonzero"/></g></svg>